<svg width="68" height="68" viewBox="0 0 68 68" fill="none" xmlns="http://www.w3.org/2000/svg">
<g filter="url(#filter0_d_151_158)">
<path d="M55.2132 8.78672C49.5469 3.1207 42.0133 0 34 0C25.9867 0 18.4531 3.1207 12.7868 8.78672C7.12047 14.4531 4 21.9866 4 30C4 38.0134 7.12047 45.5469 12.7868 51.2133C18.4531 56.8793 25.9867 60 34 60C42.0133 60 49.5469 56.8793 55.2132 51.2133C60.8795 45.5469 64 38.0134 64 30C64 21.9866 60.8795 14.4531 55.2132 8.78672ZM14.6314 49.3685C9.90438 44.6415 7.11918 38.4906 6.67352 31.8832C7.39 31.9077 8.1223 31.9755 8.86223 32.0856C14.1654 32.8733 19.5023 35.7234 23.8894 40.1106C28.2766 44.4979 31.1266 49.8346 31.9144 55.1379C32.0223 55.8586 32.0894 56.5849 32.1154 57.3132C25.7419 56.8775 19.4928 54.2298 14.6314 49.3685ZM34.7262 57.3682C34.7013 56.4931 34.6239 55.6203 34.4946 54.7545C33.6251 48.9019 30.5139 43.046 25.7338 38.2659C20.9538 33.4859 15.098 30.3746 9.2452 29.5051C8.37502 29.3751 7.49781 29.2977 6.61832 29.2732C6.64105 28.3972 6.7048 27.5283 6.8084 26.6682C7.73793 26.6987 8.68246 26.7843 9.62863 26.9248C16.0308 27.8757 22.4055 31.2484 27.5785 36.4213C32.7512 41.5939 36.1239 47.9687 37.075 54.3709C37.2133 55.3004 37.2987 56.237 37.3307 57.1763C36.4661 57.2814 35.5969 57.3455 34.7262 57.3682ZM53.3685 49.3685C49.5416 53.1952 44.8551 55.6504 39.9248 56.7348C39.881 55.8152 39.7912 54.8983 39.6557 53.9877C38.6229 47.0358 34.9889 40.1423 29.4234 34.5766C23.8575 29.0109 16.964 25.3772 10.0123 24.3444C9.0982 24.2082 8.17782 24.1182 7.25465 24.0746L7.2475 24.0805C8.35598 19.0238 10.883 14.3798 14.6315 10.6314C18.2923 6.97055 22.7399 4.56516 27.4349 3.41402C27.4672 4.49215 27.5632 5.56742 27.7224 6.63422C28.755 13.5859 32.3889 20.4795 37.9546 26.0453C43.5203 31.611 50.4139 35.2447 57.3659 36.2775C58.4358 36.4373 59.5143 36.5334 60.5956 36.5653L60.6073 36.5459C59.4323 41.3595 56.9617 45.7754 53.3685 49.3685ZM61.1071 33.966C60.0064 33.955 58.8814 33.8653 57.7492 33.6972C51.3468 32.7461 44.972 29.3735 39.7993 24.2006C34.6265 19.0277 31.2538 12.6531 30.3029 6.25102C30.1354 5.12379 30.0455 4.00371 30.034 2.90824C30.8999 2.78261 31.7712 2.69826 32.6451 2.65547C32.6431 3.70254 32.7214 4.7775 32.8832 5.8677C33.7527 11.7204 36.8641 17.5763 41.6441 22.3562C42.1534 22.8654 42.9794 22.8654 43.4888 22.3562C43.9981 21.8469 43.9981 21.021 43.4888 20.5114C39.1016 16.1243 36.2516 10.7876 35.4638 5.48426C35.3205 4.51898 35.2499 3.57035 35.2521 2.65055C41.8434 2.94937 48.3467 5.60918 53.3688 10.6315C58.2461 15.5088 61.0565 21.902 61.3623 28.7483C60.4367 28.7503 59.4855 28.6804 58.5159 28.5363C57.8035 28.4305 57.1397 28.9225 57.034 29.635C56.9281 30.3476 57.42 31.0109 58.1325 31.1167C59.21 31.2768 60.2729 31.3569 61.3083 31.3569C61.3252 31.3569 61.3417 31.356 61.3586 31.356C61.316 32.2295 61.2321 33.1004 61.1071 33.966Z" fill="#F1CDB3"/>
<path d="M50.1517 25.775C49.8059 25.7756 49.4744 25.9131 49.2296 26.1573C48.9854 26.4021 48.848 26.7336 48.8474 27.0793C48.8474 27.4224 48.9857 27.7589 49.2296 28.0015C49.4721 28.2442 49.8087 28.3836 50.1517 28.3836C50.4947 28.3836 50.8313 28.2442 51.0739 28.0015C51.3176 27.7563 51.4549 27.425 51.456 27.0793C51.456 26.7363 51.3164 26.3998 51.0739 26.1573C50.829 25.9131 50.4975 25.7756 50.1517 25.775Z" fill="#F1CDB3"/>
</g>
<defs>
<filter id="filter0_d_151_158" x="0" y="0" width="68" height="68" filterUnits="userSpaceOnUse" color-interpolation-filters="sRGB">
<feFlood flood-opacity="0" result="BackgroundImageFix"/>
<feColorMatrix in="SourceAlpha" type="matrix" values="0 0 0 0 0 0 0 0 0 0 0 0 0 0 0 0 0 0 127 0" result="hardAlpha"/>
<feOffset dy="4"/>
<feGaussianBlur stdDeviation="2"/>
<feComposite in2="hardAlpha" operator="out"/>
<feColorMatrix type="matrix" values="0 0 0 0 0 0 0 0 0 0 0 0 0 0 0 0 0 0 0.25 0"/>
<feBlend mode="normal" in2="BackgroundImageFix" result="effect1_dropShadow_151_158"/>
<feBlend mode="normal" in="SourceGraphic" in2="effect1_dropShadow_151_158" result="shape"/>
</filter>
</defs>
</svg>
